<svg xmlns="http://www.w3.org/2000/svg" viewBox="0 0 1200 800" role="img" aria-labelledby="title desc">
  <title id="title">Topic 1.3 — Content Delivery</title><desc id="desc">Local BeHistorical artwork for Developments in South and Southeast Asia. Historical anchor: Lecture: States, Faith, and Trade.</desc>
  <defs><linearGradient id="bg" x1="0" y1="0" x2="1" y2="1"><stop stop-color="#1a1c1d"/><stop offset=".58" stop-color="#2b2f31"/><stop offset="1" stop-color="#3e4447"/></linearGradient><radialGradient id="glow"><stop stop-color="#c9a46a" stop-opacity=".34"/><stop offset="1" stop-color="#c9a46a" stop-opacity="0"/></radialGradient></defs>
  <rect width="1200" height="800" fill="url(#bg)"/><circle cx="660" cy="208" r="420" fill="url(#glow)"/><circle cx="923" cy="610" r="330" fill="url(#glow)" opacity=".7"/>
  <g fill="none" stroke="#c9a46a" opacity=".18"><path d="M0 655 1200 145M0 735 1200 225" stroke-width="3"/><circle cx="850" cy="400" r="255" stroke-width="4"/><circle cx="850" cy="400" r="285" stroke-width="2"/></g>
  <g color="#c9a46a" opacity=".82"><path d="M680 545h320M710 515V315l130-78 130 78v200M750 515V345h180v170M795 515V385h90v130" fill="none" stroke="currentColor" stroke-width="20"/></g>
  <rect x="72" y="96" width="180" height="7" rx="3.5" fill="#c9a46a" opacity=".72"/><rect x="72" y="122" width="110" height="3" rx="1.5" fill="#d2b48c" opacity=".4"/>
  <path d="M72 650h360M72 678h220" stroke="#c9a46a" stroke-width="5" stroke-linecap="round" opacity=".32"/>
</svg>
