<svg xmlns="http://www.w3.org/2000/svg" viewBox="0 0 2400 1200" width="2400" height="1200" role="img" aria-hidden="true">
  <defs>
    <linearGradient id="g-hero" x1="0" y1="0" x2="1" y2="1">
      <stop offset="0" stop-color="#EFEBE1"/>
      <stop offset="1" stop-color="#E3DED2"/>
    </linearGradient>
    <pattern id="grid-hero" width="150" height="150" patternUnits="userSpaceOnUse">
      <path d="M 150 0 L 0 0 0 150" fill="none" stroke="#4A555D" stroke-opacity="0.13" stroke-width="1"/>
    </pattern>
    <pattern id="hatch-hero" width="7" height="7" patternUnits="userSpaceOnUse" patternTransform="rotate(45)">
      <line x1="0" y1="0" x2="0" y2="7" stroke="#4A555D" stroke-opacity="0.10" stroke-width="1.4"/>
    </pattern>
  </defs>
  <rect width="2400" height="1200" fill="url(#g-hero)"/>
  <rect width="2400" height="1200" fill="url(#hatch-hero)"/>
  <rect width="2400" height="1200" fill="url(#grid-hero)"/><g><line x1="1728" y1="72" x2="1728" y2="1152" stroke="#4A555D" stroke-width="5" stroke-opacity="0.55"/><circle cx="1728" cy="120.0" r="20.0" fill="#D9530C" fill-opacity="0.95"/><line x1="1698" y1="120.0" x2="1248.0" y2="120.0" stroke="#4A555D" stroke-opacity="0.50" stroke-width="2"/><circle cx="1728" cy="284.0" r="18.5" fill="#D9530C" fill-opacity="0.88"/><line x1="1699.5" y1="284.0" x2="1248.0" y2="284.0" stroke="#4A555D" stroke-opacity="0.45" stroke-width="2"/><circle cx="1728" cy="448.0" r="17.0" fill="#D9530C" fill-opacity="0.80"/><line x1="1701" y1="448.0" x2="1248.0" y2="448.0" stroke="#4A555D" stroke-opacity="0.41" stroke-width="2"/><circle cx="1728" cy="612.0" r="15.5" fill="#FF6A13" fill-opacity="0.72"/><line x1="1702.5" y1="612.0" x2="1248.0" y2="612.0" stroke="#4A555D" stroke-opacity="0.36" stroke-width="2"/><circle cx="1728" cy="776.0" r="14.0" fill="#FF6A13" fill-opacity="0.65"/><line x1="1704" y1="776.0" x2="1248.0" y2="776.0" stroke="#4A555D" stroke-opacity="0.31" stroke-width="2"/><circle cx="1728" cy="940.0" r="12.5" fill="#FF6A13" fill-opacity="0.57"/><line x1="1705.5" y1="940.0" x2="1248.0" y2="940.0" stroke="#4A555D" stroke-opacity="0.27" stroke-width="2"/><circle cx="1728" cy="1104.0" r="11.0" fill="#FF6A13" fill-opacity="0.50"/><line x1="1707" y1="1104.0" x2="1248.0" y2="1104.0" stroke="#4A555D" stroke-opacity="0.22" stroke-width="2"/></g></svg>