<svg xmlns="http://www.w3.org/2000/svg" viewBox="0 0 1200 800" role="img" aria-labelledby="title desc">
  <title id="title">Topic 8.3 — AP Skill Builder</title><desc id="desc">Local BeHistorical artwork for Effects of the Cold War. Historical anchor: Compare U.S. and Soviet Methods for Maintaining Inf….</desc>
  <defs><linearGradient id="bg" x1="0" y1="0" x2="1" y2="1"><stop stop-color="#1a1c1d"/><stop offset=".58" stop-color="#2b2f31"/><stop offset="1" stop-color="#3e4447"/></linearGradient><radialGradient id="glow"><stop stop-color="#d2b48c" stop-opacity=".34"/><stop offset="1" stop-color="#d2b48c" stop-opacity="0"/></radialGradient></defs>
  <rect width="1200" height="800" fill="url(#bg)"/><circle cx="731" cy="88" r="420" fill="url(#glow)"/><circle cx="1037" cy="610" r="330" fill="url(#glow)" opacity=".7"/>
  <g fill="none" stroke="#d2b48c" opacity=".18"><path d="M0 655 1200 145M0 735 1200 225" stroke-width="3"/><circle cx="850" cy="400" r="255" stroke-width="4"/><circle cx="850" cy="400" r="285" stroke-width="2"/></g>
  <g color="#d2b48c" opacity=".82"><path d="M670 545h350M710 545v-90h85v-90h85v-90h110M700 280h290" fill="none" stroke="currentColor" stroke-width="22"/><path d="m950 235 50 45-50 45" fill="none" stroke="currentColor" stroke-width="22"/></g>
  <rect x="72" y="96" width="180" height="7" rx="3.5" fill="#d2b48c" opacity=".72"/><rect x="72" y="122" width="110" height="3" rx="1.5" fill="#d2b48c" opacity=".4"/>
  <path d="M72 650h360M72 678h220" stroke="#d2b48c" stroke-width="5" stroke-linecap="round" opacity=".32"/>
</svg>
