<svg xmlns="http://www.w3.org/2000/svg" viewBox="0 0 1200 800" role="img" aria-labelledby="title desc">
  <title id="title">Topic 7.5 — First &amp; 10 Reading</title><desc id="desc">Local BeHistorical artwork for Unresolved Tensions After World War I. Historical anchor: First &amp; 10: The Empire That Would Not End.</desc>
  <defs><linearGradient id="bg" x1="0" y1="0" x2="1" y2="1"><stop stop-color="#1a1c1d"/><stop offset=".58" stop-color="#2b2f31"/><stop offset="1" stop-color="#3e4447"/></linearGradient><radialGradient id="glow"><stop stop-color="#d0a15e" stop-opacity=".34"/><stop offset="1" stop-color="#d0a15e" stop-opacity="0"/></radialGradient></defs>
  <rect width="1200" height="800" fill="url(#bg)"/><circle cx="689" cy="202" r="420" fill="url(#glow)"/><circle cx="982" cy="610" r="330" fill="url(#glow)" opacity=".7"/>
  <g fill="none" stroke="#d0a15e" opacity=".18"><path d="M0 655 1200 145M0 735 1200 225" stroke-width="3"/><circle cx="850" cy="400" r="255" stroke-width="4"/><circle cx="850" cy="400" r="285" stroke-width="2"/></g>
  <g color="#d0a15e" opacity=".82"><path d="M655 245c78-28 145-18 190 28v300c-45-46-112-56-190-28V245Zm360 0c-78-28-145-18-190 28v300c45-46 112-56 190-28V245Z" fill="none" stroke="currentColor" stroke-width="18"/></g>
  <rect x="72" y="96" width="180" height="7" rx="3.5" fill="#d0a15e" opacity=".72"/><rect x="72" y="122" width="110" height="3" rx="1.5" fill="#d2b48c" opacity=".4"/>
  <path d="M72 650h360M72 678h220" stroke="#d0a15e" stroke-width="5" stroke-linecap="round" opacity=".32"/>
</svg>
