<svg xmlns="http://www.w3.org/2000/svg" viewBox="0 0 1200 800" role="img" aria-labelledby="title desc">
  <title id="title">Topic 1.5 — BeSurreal</title><desc id="desc">Local BeHistorical artwork for State Building in Africa. Historical anchor: BeSurreal: Walls That Spoke for Kings.</desc>
  <defs><linearGradient id="bg" x1="0" y1="0" x2="1" y2="1"><stop stop-color="#1a1c1d"/><stop offset=".58" stop-color="#2b2f31"/><stop offset="1" stop-color="#3e4447"/></linearGradient><radialGradient id="glow"><stop stop-color="#d2b48c" stop-opacity=".34"/><stop offset="1" stop-color="#d2b48c" stop-opacity="0"/></radialGradient></defs>
  <rect width="1200" height="800" fill="url(#bg)"/><circle cx="641" cy="185" r="420" fill="url(#glow)"/><circle cx="998" cy="610" r="330" fill="url(#glow)" opacity=".7"/>
  <g fill="none" stroke="#d2b48c" opacity=".18"><path d="M0 655 1200 145M0 735 1200 225" stroke-width="3"/><circle cx="850" cy="400" r="255" stroke-width="4"/><circle cx="850" cy="400" r="285" stroke-width="2"/></g>
  <g color="#d2b48c" opacity=".82"><path d="M835 210c155 0 225 180 110 275-91 75-235 11-196-87 30-75 145-65 146 8 1 49-65 67-94 33" fill="none" stroke="currentColor" stroke-width="22" stroke-linecap="round"/><circle cx="835" cy="410" r="205" fill="none" stroke="currentColor" stroke-width="8" opacity=".45"/></g>
  <rect x="72" y="96" width="180" height="7" rx="3.5" fill="#d2b48c" opacity=".72"/><rect x="72" y="122" width="110" height="3" rx="1.5" fill="#d2b48c" opacity=".4"/>
  <path d="M72 650h360M72 678h220" stroke="#d2b48c" stroke-width="5" stroke-linecap="round" opacity=".32"/>
</svg>
