<svg xmlns="http://www.w3.org/2000/svg" viewBox="0 0 1200 720"><rect width="1200" height="720" fill="#24343f"/><rect width="1200" height="150" fill="#1a1c1d"/><text x="60" y="70" fill="#c9a46a" font-family="Montserrat" font-size="18" font-weight="700">AP WORLD HISTORY · UNIT 1 · TOPIC 1.5</text><text x="60" y="118" fill="#fffdf7" font-family="Cinzel" font-size="36" font-weight="700">State Building in Africa</text><path d="M470 185 C620 180 770 255 810 400 C840 530 760 650 610 680 C450 700 310 620 278 470 C245 320 330 210 470 185 Z" fill="#d9c7a8" stroke="#2b2f31" stroke-width="4"/><circle cx="470" cy="355" r="14" fill="#a8652d" stroke="#151718" stroke-width="3"/><text x="495" y="360" fill="#151718" font-family="Montserrat" font-size="24" font-weight="700">Mali</text><circle cx="540" cy="390" r="10" fill="#8c5a2b"/><text x="562" y="398" fill="#151718" font-family="Montserrat" font-size="18" font-weight="700">Timbuktu</text><circle cx="735" cy="505" r="13" fill="#a8652d" stroke="#151718" stroke-width="3"/><text x="760" y="512" fill="#151718" font-family="Montserrat" font-size="22" font-weight="700">Great Zimbabwe</text><circle cx="825" cy="420" r="12" fill="#a8652d" stroke="#151718" stroke-width="3"/><text x="850" y="426" fill="#151718" font-family="Montserrat" font-size="20" font-weight="700">Swahili Coast</text><path d="M510 340 C620 330 720 350 810 405" stroke="#8c5a2b" stroke-width="5" stroke-dasharray="12 10" fill="none"/><text x="620" y="318" fill="#fffdf7" font-family="Montserrat" font-size="18" font-weight="700">Trans-Saharan & Indian Ocean Trade</text></svg>