<svg xmlns="http://www.w3.org/2000/svg" viewBox="0 0 1200 720"><rect width="1200" height="720" fill="#24343f"/><rect width="1200" height="150" fill="#1a1c1d"/><text x="60" y="70" fill="#c9a46a" font-family="Montserrat" font-size="18" font-weight="700">AP WORLD HISTORY · UNIT 1 · TOPIC 1.6</text><text x="60" y="118" fill="#fffdf7" font-family="Cinzel" font-size="36" font-weight="700">Developments in Europe</text><path d="M350 250 C470 180 700 190 845 300 C900 345 930 430 885 505 C835 585 710 640 560 632 C425 625 318 570 280 490 C245 418 255 320 350 250 Z" fill="#d9c7a8" stroke="#2b2f31" stroke-width="4"/><circle cx="470" cy="375" r="12" fill="#a8652d" stroke="#151718" stroke-width="3"/><text x="495" y="382" fill="#151718" font-family="Montserrat" font-size="22" font-weight="700">France</text><circle cx="405" cy="320" r="11" fill="#8c5a2b"/><text x="428" y="326" fill="#151718" font-family="Montserrat" font-size="20" font-weight="700">England</text><circle cx="645" cy="335" r="11" fill="#8c5a2b"/><text x="668" y="342" fill="#151718" font-family="Montserrat" font-size="20" font-weight="700">Holy Roman Empire</text><circle cx="575" cy="445" r="12" fill="#a8652d" stroke="#151718" stroke-width="3"/><text x="600" y="452" fill="#151718" font-family="Montserrat" font-size="22" font-weight="700">Italian City-States</text><path d="M390 332 C470 355 530 402 590 442" stroke="#8c5a2b" stroke-width="5" stroke-dasharray="10 8" fill="none"/><text x="700" y="620" fill="#fffdf7" font-family="Montserrat" font-size="18" font-weight="700">Political fragmentation + Church unity shaped medieval Europe.</text></svg>