<svg xmlns="http://www.w3.org/2000/svg" viewBox="0 0 1200 720" role="img" aria-labelledby="title desc">
<title id="title">Unit 1 Global Tapestry Comparison Map</title>
<desc id="desc">Instructional world comparison map for Unit 1 regions.</desc>
<rect width="1200" height="720" fill="#f5f0e7"/>
<rect x="45" y="45" width="1110" height="630" rx="18" fill="#fffdf7" stroke="#5a5f5c" stroke-width="3"/>
<text x="600" y="92" text-anchor="middle" font-family="Georgia, serif" font-size="34" font-weight="700" fill="#1a1c1d">Unit 1: The Global Tapestry</text>
<text x="600" y="124" text-anchor="middle" font-family="Arial, sans-serif" font-size="16" fill="#5a5f5c">Comparison map: state building, belief systems, trade, labor, and social structures</text>
<path d="M110 265 C230 205 350 230 420 300 C505 385 405 500 250 485 C140 470 65 350 110 265 Z" fill="#d2b48c" stroke="#8c5a2b" stroke-width="2"/>
<path d="M505 230 C650 160 815 205 900 315 C990 430 885 575 705 565 C545 555 420 410 505 230 Z" fill="#c9a46a" stroke="#8c5a2b" stroke-width="2"/>
<path d="M890 250 C1005 210 1110 260 1130 350 C1155 455 1035 520 920 470 C835 435 810 305 890 250 Z" fill="#d2b48c" stroke="#8c5a2b" stroke-width="2"/>
<path d="M355 485 C420 505 455 580 420 640 C360 625 320 555 355 485 Z" fill="#a8652d" opacity=".7" stroke="#6b3e1f" stroke-width="2"/>
<circle cx="875" cy="330" r="10" fill="#1a1c1d"/><text x="875" y="308" text-anchor="middle" font-family="Arial" font-size="18" font-weight="700">Song China</text>
<circle cx="645" cy="345" r="10" fill="#1a1c1d"/><text x="645" y="323" text-anchor="middle" font-family="Arial" font-size="18" font-weight="700">Dar al-Islam</text>
<circle cx="785" cy="445" r="10" fill="#1a1c1d"/><text x="785" y="470" text-anchor="middle" font-family="Arial" font-size="18" font-weight="700">South &amp; SE Asia</text>
<circle cx="295" cy="355" r="10" fill="#1a1c1d"/><text x="295" y="333" text-anchor="middle" font-family="Arial" font-size="18" font-weight="700">Americas</text>
<circle cx="545" cy="435" r="10" fill="#1a1c1d"/><text x="545" y="462" text-anchor="middle" font-family="Arial" font-size="18" font-weight="700">Africa</text>
<circle cx="570" cy="250" r="10" fill="#1a1c1d"/><text x="570" y="228" text-anchor="middle" font-family="Arial" font-size="18" font-weight="700">Europe</text>
<path d="M570 250 C615 280 635 315 645 345" stroke="#3e4447" stroke-width="4" stroke-dasharray="10 10" fill="none"/>
<path d="M645 345 C705 370 755 410 785 445" stroke="#3e4447" stroke-width="4" stroke-dasharray="10 10" fill="none"/>
<path d="M545 435 C575 390 610 365 645 345" stroke="#3e4447" stroke-width="4" stroke-dasharray="10 10" fill="none"/>
<text x="600" y="610" text-anchor="middle" font-family="Arial" font-size="22" font-weight="700" fill="#1a1c1d">Compare by category: government · belief · trade · labor · geography · social order</text>
</svg>