<svg xmlns="http://www.w3.org/2000/svg" viewBox="0 0 1600 900" width="1600" height="900" role="img" aria-hidden="true">
  <defs>
    <linearGradient id="g-enforcement" x1="0" y1="0" x2="1" y2="1">
      <stop offset="0" stop-color="#F2EEE4"/>
      <stop offset="1" stop-color="#E4DFD3"/>
    </linearGradient>
    <pattern id="grid-enforcement" width="100" height="100" patternUnits="userSpaceOnUse">
      <path d="M 100 0 L 0 0 0 100" fill="none" stroke="#4A555D" stroke-opacity="0.13" stroke-width="1"/>
    </pattern>
    <pattern id="hatch-enforcement" width="7" height="7" patternUnits="userSpaceOnUse" patternTransform="rotate(45)">
      <line x1="0" y1="0" x2="0" y2="7" stroke="#4A555D" stroke-opacity="0.10" stroke-width="1.4"/>
    </pattern>
  </defs>
  <rect width="1600" height="900" fill="url(#g-enforcement)"/>
  <rect width="1600" height="900" fill="url(#hatch-enforcement)"/>
  <rect width="1600" height="900" fill="url(#grid-enforcement)"/><g><rect x="148.8" y="114.5" width="145.1" height="108.0" fill="none" stroke="#4A555D" stroke-opacity="0.34" stroke-width="2.5"/><circle cx="221.4" cy="168.5" r="11" fill="#FF6A13" fill-opacity="0.9"/><rect x="334.9" y="114.5" width="145.1" height="108.0" fill="none" stroke="#4A555D" stroke-opacity="0.34" stroke-width="2.5"/><rect x="520.9" y="114.5" width="145.1" height="108.0" fill="none" stroke="#4A555D" stroke-opacity="0.34" stroke-width="2.5"/><circle cx="593.5" cy="168.5" r="11" fill="#FF6A13" fill-opacity="0.9"/><rect x="707.0" y="114.5" width="145.1" height="108.0" fill="none" stroke="#4A555D" stroke-opacity="0.34" stroke-width="2.5"/><circle cx="779.5" cy="168.5" r="11" fill="#FF6A13" fill-opacity="0.9"/><rect x="893.0" y="114.5" width="145.1" height="108.0" fill="none" stroke="#4A555D" stroke-opacity="0.34" stroke-width="2.5"/><rect x="1079.1" y="114.5" width="145.1" height="108.0" fill="none" stroke="#4A555D" stroke-opacity="0.34" stroke-width="2.5"/><rect x="1265.1" y="114.5" width="145.1" height="108.0" fill="none" stroke="#4A555D" stroke-opacity="0.34" stroke-width="2.5"/><circle cx="1337.7" cy="168.5" r="11" fill="#FF6A13" fill-opacity="0.9"/><rect x="148.8" y="278.2" width="145.1" height="108.0" fill="none" stroke="#4A555D" stroke-opacity="0.34" stroke-width="2.5"/><circle cx="221.4" cy="332.2" r="11" fill="#FF6A13" fill-opacity="0.9"/><rect x="334.9" y="278.2" width="145.1" height="108.0" fill="none" stroke="#4A555D" stroke-opacity="0.34" stroke-width="2.5"/><rect x="520.9" y="278.2" width="145.1" height="108.0" fill="none" stroke="#4A555D" stroke-opacity="0.34" stroke-width="2.5"/><rect x="707.0" y="278.2" width="145.1" height="108.0" fill="none" stroke="#4A555D" stroke-opacity="0.34" stroke-width="2.5"/><rect x="893.0" y="278.2" width="145.1" height="108.0" fill="none" stroke="#4A555D" stroke-opacity="0.34" stroke-width="2.5"/><circle cx="965.6" cy="332.2" r="11" fill="#FF6A13" fill-opacity="0.9"/><rect x="1079.1" y="278.2" width="145.1" height="108.0" fill="none" stroke="#4A555D" stroke-opacity="0.34" stroke-width="2.5"/><rect x="1265.1" y="278.2" width="145.1" height="108.0" fill="none" stroke="#4A555D" stroke-opacity="0.34" stroke-width="2.5"/><rect x="148.8" y="441.8" width="145.1" height="108.0" fill="none" stroke="#4A555D" stroke-opacity="0.34" stroke-width="2.5"/><rect x="334.9" y="441.8" width="145.1" height="108.0" fill="none" stroke="#4A555D" stroke-opacity="0.34" stroke-width="2.5"/><rect x="520.9" y="441.8" width="145.1" height="108.0" fill="none" stroke="#4A555D" stroke-opacity="0.34" stroke-width="2.5"/><rect x="707.0" y="441.8" width="145.1" height="108.0" fill="none" stroke="#4A555D" stroke-opacity="0.34" stroke-width="2.5"/><circle cx="779.5" cy="495.8" r="11" fill="#FF6A13" fill-opacity="0.9"/><rect x="893.0" y="441.8" width="145.1" height="108.0" fill="none" stroke="#4A555D" stroke-opacity="0.34" stroke-width="2.5"/><circle cx="965.6" cy="495.8" r="11" fill="#FF6A13" fill-opacity="0.9"/><rect x="1079.1" y="441.8" width="145.1" height="108.0" fill="none" stroke="#4A555D" stroke-opacity="0.34" stroke-width="2.5"/><rect x="1265.1" y="441.8" width="145.1" height="108.0" fill="none" stroke="#4A555D" stroke-opacity="0.34" stroke-width="2.5"/><rect x="148.8" y="605.5" width="145.1" height="108.0" fill="none" stroke="#4A555D" stroke-opacity="0.34" stroke-width="2.5"/><rect x="334.9" y="605.5" width="145.1" height="108.0" fill="none" stroke="#4A555D" stroke-opacity="0.34" stroke-width="2.5"/><circle cx="407.4" cy="659.5" r="11" fill="#FF6A13" fill-opacity="0.9"/><rect x="520.9" y="605.5" width="145.1" height="108.0" fill="none" stroke="#4A555D" stroke-opacity="0.34" stroke-width="2.5"/><circle cx="593.5" cy="659.5" r="11" fill="#FF6A13" fill-opacity="0.9"/><rect x="707.0" y="605.5" width="145.1" height="108.0" fill="none" stroke="#4A555D" stroke-opacity="0.34" stroke-width="2.5"/><circle cx="779.5" cy="659.5" r="11" fill="#FF6A13" fill-opacity="0.9"/><rect x="893.0" y="605.5" width="145.1" height="108.0" fill="none" stroke="#4A555D" stroke-opacity="0.34" stroke-width="2.5"/><circle cx="965.6" cy="659.5" r="11" fill="#FF6A13" fill-opacity="0.9"/><rect x="1079.1" y="605.5" width="145.1" height="108.0" fill="none" stroke="#4A555D" stroke-opacity="0.34" stroke-width="2.5"/><rect x="1265.1" y="605.5" width="145.1" height="108.0" fill="none" stroke="#4A555D" stroke-opacity="0.34" stroke-width="2.5"/><path d="M93.0232558139535 810 L992 810" stroke="#D9530C" stroke-width="8" stroke-dasharray="26 18"/><path d="M992 810 L1552 810" stroke="#4A555D" stroke-width="8" stroke-opacity="0.28"/></g></svg>
