<svg xmlns="http://www.w3.org/2000/svg" viewBox="0 0 1600 900" width="1600" height="900" role="img" aria-hidden="true">
  <defs>
    <linearGradient id="g-evidence" x1="0" y1="0" x2="1" y2="1">
      <stop offset="0" stop-color="#F2EEE4"/>
      <stop offset="1" stop-color="#E4DFD3"/>
    </linearGradient>
    <pattern id="grid-evidence" width="100" height="100" patternUnits="userSpaceOnUse">
      <path d="M 100 0 L 0 0 0 100" fill="none" stroke="#4A555D" stroke-opacity="0.13" stroke-width="1"/>
    </pattern>
    <pattern id="hatch-evidence" width="7" height="7" patternUnits="userSpaceOnUse" patternTransform="rotate(45)">
      <line x1="0" y1="0" x2="0" y2="7" stroke="#4A555D" stroke-opacity="0.10" stroke-width="1.4"/>
    </pattern>
  </defs>
  <rect width="1600" height="900" fill="url(#g-evidence)"/>
  <rect width="1600" height="900" fill="url(#hatch-evidence)"/>
  <rect width="1600" height="900" fill="url(#grid-evidence)"/><g fill="none"><rect x="208" y="144" width="1184" height="630" stroke="#232C33" stroke-width="8"/><line x1="800" y1="144" x2="800" y2="774" stroke="#232C33" stroke-width="6"/><line x1="272" y1="206" x2="736" y2="206" stroke="#4A555D" stroke-width="7" stroke-opacity="0.5"/><line x1="272" y1="258" x2="736" y2="258" stroke="#4A555D" stroke-width="7" stroke-opacity="0.5"/><line x1="272" y1="310" x2="736" y2="310" stroke="#4A555D" stroke-width="7" stroke-opacity="0.5"/><line x1="272" y1="362" x2="736" y2="362" stroke="#4A555D" stroke-width="7" stroke-opacity="0.5"/><line x1="272" y1="414" x2="736" y2="414" stroke="#4A555D" stroke-width="7" stroke-opacity="0.5"/><line x1="272" y1="466" x2="736" y2="466" stroke="#4A555D" stroke-width="7" stroke-opacity="0.5"/><line x1="272" y1="518" x2="736" y2="518" stroke="#4A555D" stroke-width="7" stroke-opacity="0.5"/><line x1="864" y1="206" x2="1328" y2="206" stroke="#FF6A13" stroke-width="7" stroke-dasharray="20 14" stroke-opacity="0.85"/><line x1="864" y1="258" x2="1328" y2="258" stroke="#FF6A13" stroke-width="7" stroke-dasharray="20 14" stroke-opacity="0.79"/><line x1="864" y1="310" x2="1328" y2="310" stroke="#FF6A13" stroke-width="7" stroke-dasharray="20 14" stroke-opacity="0.73"/><line x1="864" y1="362" x2="1328" y2="362" stroke="#FF6A13" stroke-width="7" stroke-dasharray="20 14" stroke-opacity="0.67"/><line x1="864" y1="414" x2="1328" y2="414" stroke="#FF6A13" stroke-width="7" stroke-dasharray="20 14" stroke-opacity="0.61"/><line x1="864" y1="466" x2="1328" y2="466" stroke="#FF6A13" stroke-width="7" stroke-dasharray="20 14" stroke-opacity="0.55"/><line x1="864" y1="518" x2="1328" y2="518" stroke="#FF6A13" stroke-width="7" stroke-dasharray="20 14" stroke-opacity="0.49"/></g></svg>
