<svg xmlns="http://www.w3.org/2000/svg" viewBox="0 0 1600 900" width="1600" height="900" role="img" aria-hidden="true">
  <defs>
    <linearGradient id="g-sources" x1="0" y1="0" x2="1" y2="1">
      <stop offset="0" stop-color="#F2EEE4"/>
      <stop offset="1" stop-color="#E4DFD3"/>
    </linearGradient>
    <pattern id="grid-sources" width="100" height="100" patternUnits="userSpaceOnUse">
      <path d="M 100 0 L 0 0 0 100" fill="none" stroke="#4A555D" stroke-opacity="0.13" stroke-width="1"/>
    </pattern>
    <pattern id="hatch-sources" width="7" height="7" patternUnits="userSpaceOnUse" patternTransform="rotate(45)">
      <line x1="0" y1="0" x2="0" y2="7" stroke="#4A555D" stroke-opacity="0.10" stroke-width="1.4"/>
    </pattern>
  </defs>
  <rect width="1600" height="900" fill="url(#g-sources)"/>
  <rect width="1600" height="900" fill="url(#hatch-sources)"/>
  <rect width="1600" height="900" fill="url(#grid-sources)"/><g fill="none"><rect x="320" y="198" width="736" height="360" stroke="#4A555D" stroke-width="6" stroke-opacity="0.42" fill="#F2EEE4" fill-opacity="0.85"/><line x1="360" y1="252" x2="896" y2="252" stroke="#4A555D" stroke-width="5" stroke-opacity="0.26"/><line x1="360" y1="298" x2="896" y2="298" stroke="#4A555D" stroke-width="5" stroke-opacity="0.26"/><line x1="360" y1="344" x2="896" y2="344" stroke="#4A555D" stroke-width="5" stroke-opacity="0.26"/><line x1="360" y1="390" x2="896" y2="390" stroke="#4A555D" stroke-width="5" stroke-opacity="0.26"/><rect x="354" y="240" width="736" height="360" stroke="#4A555D" stroke-width="6" stroke-opacity="0.42" fill="#F2EEE4" fill-opacity="0.85"/><line x1="394" y1="294" x2="930" y2="294" stroke="#4A555D" stroke-width="5" stroke-opacity="0.26"/><line x1="394" y1="340" x2="930" y2="340" stroke="#4A555D" stroke-width="5" stroke-opacity="0.26"/><line x1="394" y1="386" x2="930" y2="386" stroke="#4A555D" stroke-width="5" stroke-opacity="0.26"/><line x1="394" y1="432" x2="930" y2="432" stroke="#4A555D" stroke-width="5" stroke-opacity="0.26"/><rect x="388" y="282" width="736" height="360" stroke="#FF6A13" stroke-width="9" stroke-opacity="1" fill="#F2EEE4" fill-opacity="0.85"/><line x1="428" y1="336" x2="964" y2="336" stroke="#D9530C" stroke-width="5" stroke-opacity="0.6"/><line x1="428" y1="382" x2="964" y2="382" stroke="#D9530C" stroke-width="5" stroke-opacity="0.6"/><line x1="428" y1="428" x2="964" y2="428" stroke="#D9530C" stroke-width="5" stroke-opacity="0.6"/><line x1="428" y1="474" x2="964" y2="474" stroke="#D9530C" stroke-width="5" stroke-opacity="0.6"/><rect x="422" y="324" width="736" height="360" stroke="#4A555D" stroke-width="6" stroke-opacity="0.42" fill="#F2EEE4" fill-opacity="0.85"/><line x1="462" y1="378" x2="998" y2="378" stroke="#4A555D" stroke-width="5" stroke-opacity="0.26"/><line x1="462" y1="424" x2="998" y2="424" stroke="#4A555D" stroke-width="5" stroke-opacity="0.26"/><line x1="462" y1="470" x2="998" y2="470" stroke="#4A555D" stroke-width="5" stroke-opacity="0.26"/><line x1="462" y1="516" x2="998" y2="516" stroke="#4A555D" stroke-width="5" stroke-opacity="0.26"/><rect x="456" y="366" width="736" height="360" stroke="#4A555D" stroke-width="6" stroke-opacity="0.42" fill="#F2EEE4" fill-opacity="0.85"/><line x1="496" y1="420" x2="1032" y2="420" stroke="#4A555D" stroke-width="5" stroke-opacity="0.26"/><line x1="496" y1="466" x2="1032" y2="466" stroke="#4A555D" stroke-width="5" stroke-opacity="0.26"/><line x1="496" y1="512" x2="1032" y2="512" stroke="#4A555D" stroke-width="5" stroke-opacity="0.26"/><line x1="496" y1="558" x2="1032" y2="558" stroke="#4A555D" stroke-width="5" stroke-opacity="0.26"/></g></svg>
