<svg xmlns="http://www.w3.org/2000/svg" viewBox="0 0 1200 800" role="img" aria-labelledby="title desc">
  <title id="title">Topic 3.1 — Map &amp; Geography</title><desc id="desc">Local BeHistorical artwork for Empires Expand. Historical anchor: Ottoman Empire Expansion: A Land-Based Empire in Ac….</desc>
  <defs><linearGradient id="bg" x1="0" y1="0" x2="1" y2="1"><stop stop-color="#1a1c1d"/><stop offset=".58" stop-color="#2b2f31"/><stop offset="1" stop-color="#3e4447"/></linearGradient><radialGradient id="glow"><stop stop-color="#d0a15e" stop-opacity=".34"/><stop offset="1" stop-color="#d0a15e" stop-opacity="0"/></radialGradient></defs>
  <rect width="1200" height="800" fill="url(#bg)"/><circle cx="704" cy="229" r="420" fill="url(#glow)"/><circle cx="972" cy="610" r="330" fill="url(#glow)" opacity=".7"/>
  <g fill="none" stroke="#d0a15e" opacity=".18"><path d="M0 655 1200 145M0 735 1200 225" stroke-width="3"/><circle cx="850" cy="400" r="255" stroke-width="4"/><circle cx="850" cy="400" r="285" stroke-width="2"/></g>
  <g color="#d0a15e" opacity=".82"><circle cx="835" cy="380" r="168" fill="none" stroke="currentColor" stroke-width="18"/><path d="M667 380h336M835 212c-58 45-88 101-88 168s30 123 88 168M835 212c58 45 88 101 88 168s-30 123-88 168M690 300h290M690 460h290" fill="none" stroke="currentColor" stroke-width="12"/></g>
  <rect x="72" y="96" width="180" height="7" rx="3.5" fill="#d0a15e" opacity=".72"/><rect x="72" y="122" width="110" height="3" rx="1.5" fill="#d2b48c" opacity=".4"/>
  <path d="M72 650h360M72 678h220" stroke="#d0a15e" stroke-width="5" stroke-linecap="round" opacity=".32"/>
</svg>
